<svg width="24" height="24" viewBox="0 0 24 24" fill="none" xmlns="http://www.w3.org/2000/svg">
<path d="M11.2655 19.8077C11.1155 19.3712 10.9238 18.9684 10.6905 18.5992C10.4572 18.2299 10.1822 17.8857 9.86548 17.5667C9.54882 17.2479 9.20715 16.9708 8.84048 16.7355C8.47382 16.5003 8.07382 16.3077 7.64048 16.1577C7.67382 16.6411 7.79048 17.0911 7.99048 17.5077C8.19048 17.9244 8.45715 18.2994 8.79048 18.6327C9.12382 18.9661 9.49882 19.2337 9.91548 19.4355C10.3322 19.6375 10.7822 19.7616 11.2655 19.8077ZM12.7155 19.8077C13.1988 19.7706 13.6506 19.652 14.0707 19.452C14.4909 19.252 14.8691 18.9853 15.2052 18.652C15.5414 18.3187 15.8095 17.9404 16.0095 17.5172C16.2095 17.0942 16.3282 16.6411 16.3655 16.1577C15.9352 16.3077 15.5338 16.4994 15.1615 16.7327C14.7892 16.9661 14.4457 17.2411 14.1312 17.5577C13.8167 17.8744 13.5404 18.2202 13.3022 18.5952C13.0641 18.9702 12.8685 19.3744 12.7155 19.8077ZM12 11.577C13.0615 11.577 13.9615 11.2077 14.7 10.4692C15.4385 9.73074 15.8077 8.83074 15.8077 7.76924V5.99224L14.0577 7.46724L12 4.74224L9.94223 7.46724L8.19223 5.99224V7.76924C8.19223 8.83074 8.56148 9.73074 9.29998 10.4692C10.0385 11.2077 10.9385 11.577 12 11.577ZM11.6155 20.8077C10.2265 20.8077 9.0459 20.3216 8.07374 19.3492C7.1014 18.3771 6.61523 17.1966 6.61523 15.8077V14.923C7.6704 15.0858 8.63323 15.4653 9.50373 16.0615C10.3742 16.6577 11.0397 17.3872 11.5 18.25V12.5595C10.2847 12.4417 9.26282 11.9279 8.43448 11.0182C7.60632 10.1086 7.19223 9.02557 7.19223 7.76924V5.56149C7.19223 5.20515 7.3519 4.95865 7.67123 4.82199C7.9904 4.68549 8.27815 4.73324 8.53448 4.96524L9.80773 6.06524L11.3595 4.02299C11.5257 3.81532 11.7403 3.71149 12.0035 3.71149C12.2665 3.71149 12.4788 3.81532 12.6405 4.02299L14.1922 6.06524L15.4655 4.96524C15.7218 4.73324 16.0096 4.68549 16.3287 4.82199C16.6481 4.95865 16.8077 5.20515 16.8077 5.56149V7.76924C16.8077 9.02557 16.3937 10.1086 15.5655 11.0182C14.7372 11.9279 13.7153 12.4417 12.5 12.5595V18.2307C12.9603 17.3807 13.6225 16.6577 14.4865 16.0615C15.3507 15.4653 16.3039 15.0858 17.3462 14.923V15.8077C17.3462 17.1966 16.862 18.3771 15.8935 19.3492C14.925 20.3216 13.749 20.8077 12.3655 20.8077H11.6155Z" fill="black" style="fill:black;fill-opacity:1;"/>
</svg>
