<svg width="24" height="24" viewBox="0 0 24 24" fill="none" xmlns="http://www.w3.org/2000/svg">
<mask id="mask0_28_4555" style="mask-type:alpha" maskUnits="userSpaceOnUse" x="0" y="0" width="24" height="24">
<rect width="24" height="24" fill="#D9D9D9" style="fill:#D9D9D9;fill:color(display-p3 0.8510 0.8510 0.8510);fill-opacity:1;"/>
</mask>
<g mask="url(#mask0_28_4555)">
<path d="M19.875 17.4C20.425 17.7 20.8793 17.6373 21.238 17.212C21.596 16.7873 21.6417 16.3167 21.375 15.8L19.45 12.2L17.8 16.325L19.875 17.4ZM14.55 16.5H16.65L19.075 10.475C19.2417 10.0917 19.271 9.78333 19.163 9.55C19.0543 9.31667 18.8667 9.15 18.6 9.05L16.6 8.25C16.2833 8.11667 15.9877 8.096 15.713 8.188C15.4377 8.27933 15.2833 8.49167 15.25 8.825L14.55 16.5ZM7.35 16.5H9.45L8.75 8.75C8.71667 8.5 8.56667 8.32067 8.3 8.212C8.03333 8.104 7.73333 8.11667 7.4 8.25L5.4 9.05C5.1 9.16667 4.925 9.36233 4.875 9.637C4.825 9.91233 4.86667 10.2167 5 10.55L7.35 16.5ZM4.125 17.4L6.2 16.325L4.575 12.2L2.625 15.875C2.34167 16.3917 2.39167 16.8417 2.775 17.225C3.15833 17.6083 3.60833 17.6667 4.125 17.4ZM10.45 16.5H13.55L14.35 7.6C14.3833 7.28333 14.3083 7.02067 14.125 6.812C13.9417 6.604 13.6833 6.5 13.35 6.5H10.65C10.4 6.5 10.1627 6.59567 9.938 6.787C9.71267 6.979 9.61667 7.21667 9.65 7.5L10.45 16.5ZM3.525 18.55C2.99167 18.55 2.52067 18.3583 2.112 17.975C1.704 17.5917 1.5 17.1 1.5 16.5C1.5 16.3167 1.52067 16.1377 1.562 15.963C1.604 15.7877 1.66667 15.6083 1.75 15.425L4.075 11C3.80833 10.2667 3.775 9.654 3.975 9.162C4.175 8.67067 4.53333 8.31667 5.05 8.1L7.05 7.3C7.36667 7.16667 7.66267 7.10833 7.938 7.125C8.21267 7.14167 8.46667 7.23333 8.7 7.4C8.76667 6.81667 8.99167 6.354 9.375 6.012C9.75833 5.67067 10.2 5.5 10.7 5.5H13.35C13.8333 5.5 14.271 5.65833 14.663 5.975C15.0543 6.29167 15.2917 6.74167 15.375 7.325C15.525 7.19167 15.7583 7.129 16.075 7.137C16.3917 7.14567 16.6833 7.2 16.95 7.3L18.95 8.1C19.5167 8.31667 19.9 8.68333 20.1 9.2C20.3 9.71667 20.25 10.3 19.95 10.95L22.275 15.375C22.3583 15.525 22.425 15.675 22.475 15.825C22.525 15.975 22.55 16.125 22.55 16.275C22.55 16.9083 22.3123 17.446 21.837 17.888C21.3623 18.3293 20.85 18.55 20.3 18.55C20.15 18.55 20.0127 18.5333 19.888 18.5C19.7627 18.4667 19.625 18.4083 19.475 18.325L17.85 17.5H6.125L4.625 18.3C4.45833 18.3833 4.28333 18.446 4.1 18.488C3.91667 18.5293 3.725 18.55 3.525 18.55Z" fill="black" style="fill:black;fill-opacity:1;"/>
</g>
</svg>
