<svg width="14" height="14" viewBox="0 0 14 14" fill="none" xmlns="http://www.w3.org/2000/svg">
<mask id="mask0_997_1940" style="mask-type:alpha" maskUnits="userSpaceOnUse" x="0" y="0" width="14" height="14">
<rect width="14" height="14" fill="#D9D9D9" style="fill:#D9D9D9;fill:color(display-p3 0.8510 0.8510 0.8510);fill-opacity:1;"/>
</mask>
<g mask="url(#mask0_997_1940)">
<path d="M11.5938 10.15C11.9146 10.325 12.1796 10.2885 12.3888 10.0403C12.5977 9.79262 12.6243 9.51807 12.4688 9.21668L11.3458 7.11668L10.3833 9.52293L11.5938 10.15ZM8.4875 9.62501H9.7125L11.1271 6.11043C11.2243 5.88682 11.2414 5.70695 11.1784 5.57084C11.115 5.43473 11.0056 5.33751 10.85 5.27918L9.68333 4.81251C9.49861 4.73473 9.32614 4.72268 9.16592 4.77634C9.00531 4.82962 8.91528 4.95348 8.89583 5.14793L8.4875 9.62501ZM4.2875 9.62501H5.5125L5.10417 5.10418C5.08472 4.95834 4.99722 4.85373 4.84167 4.79034C4.68611 4.72734 4.51111 4.73473 4.31667 4.81251L3.15 5.27918C2.975 5.34723 2.87292 5.46137 2.84375 5.62159C2.81458 5.7822 2.83889 5.95973 2.91667 6.15418L4.2875 9.62501ZM2.40625 10.15L3.61667 9.52293L2.66875 7.11668L1.53125 9.26043C1.36597 9.56182 1.39514 9.82432 1.61875 10.0479C1.84236 10.2715 2.10486 10.3056 2.40625 10.15ZM6.09583 9.62501H7.90417L8.37083 4.43334C8.39028 4.24862 8.34653 4.0954 8.23958 3.97368C8.13264 3.85234 7.98195 3.79168 7.7875 3.79168H6.2125C6.06667 3.79168 5.92822 3.84748 5.79717 3.95909C5.66572 4.07109 5.60972 4.20973 5.62917 4.37501L6.09583 9.62501ZM2.05625 10.8208C1.74514 10.8208 1.47039 10.709 1.232 10.4854C0.994 10.2618 0.875 9.97501 0.875 9.62501C0.875 9.51807 0.887056 9.41365 0.911167 9.31176C0.935667 9.20948 0.972222 9.10487 1.02083 8.99793L2.37708 6.41668C2.22153 5.9889 2.20208 5.63151 2.31875 5.34451C2.43542 5.0579 2.64444 4.8514 2.94583 4.72501L4.1125 4.25834C4.29722 4.18057 4.46989 4.14654 4.6305 4.15626C4.79072 4.16598 4.93889 4.21945 5.075 4.31668C5.11389 3.9764 5.24514 3.70651 5.46875 3.50701C5.69236 3.3079 5.95 3.20834 6.24167 3.20834H7.7875C8.06945 3.20834 8.32475 3.3007 8.55342 3.48543C8.7817 3.67015 8.92014 3.93265 8.96875 4.27293C9.05625 4.19515 9.19236 4.15859 9.37708 4.16326C9.56181 4.16832 9.73195 4.20001 9.8875 4.25834L11.0542 4.72501C11.3847 4.8514 11.6083 5.06529 11.725 5.36668C11.8417 5.66807 11.8125 6.00834 11.6375 6.38751L12.9938 8.96876C13.0424 9.05626 13.0813 9.14376 13.1104 9.23126C13.1396 9.31876 13.1542 9.40626 13.1542 9.49376C13.1542 9.8632 13.0155 10.1768 12.7383 10.4347C12.4614 10.6921 12.1625 10.8208 11.8417 10.8208C11.7542 10.8208 11.6741 10.8111 11.6013 10.7917C11.5282 10.7722 11.4479 10.7382 11.3604 10.6896L10.4125 10.2083H3.57292L2.69792 10.675C2.60069 10.7236 2.49861 10.7602 2.39167 10.7847C2.28472 10.8088 2.17292 10.8208 2.05625 10.8208Z" fill="black" style="fill:black;fill-opacity:1;"/>
</g>
</svg>
