<svg width="24" height="25" viewBox="0 0 24 25" fill="none" xmlns="http://www.w3.org/2000/svg">
<path d="M12 3.76611C12.727 4.64678 13.393 5.5112 13.998 6.35936C14.6032 7.20736 15.1513 8.04036 15.6423 8.85836L21 4.83336V12.3334C21 13.5757 20.7632 14.7443 20.2895 15.8391C19.8157 16.9339 19.1737 17.8865 18.3635 18.6969C17.5532 19.507 16.6006 20.149 15.5057 20.6229C14.4109 21.0965 13.2423 21.3334 12 21.3334C10.7577 21.3334 9.58908 21.0965 8.49425 20.6229C7.39942 20.149 6.44683 19.507 5.6365 18.6969C4.82633 17.8865 4.18433 16.9339 3.7105 15.8391C3.23683 14.7443 3 13.5757 3 12.3334V4.83336L8.35775 8.85836C8.84875 8.05703 9.39683 7.2282 10.002 6.37186C10.607 5.51536 11.273 4.64678 12 3.76611ZM4 6.83336V12.3334C4 13.6052 4.28175 14.7741 4.84525 15.8401C5.40875 16.9061 6.16483 17.782 7.1135 18.4679C6.7725 18.0449 6.50167 17.5683 6.301 17.0381C6.10033 16.5079 6 15.9397 6 15.3334C6 14.5757 6.15417 13.7247 6.4625 12.7804C6.77083 11.8362 7.23017 10.8154 7.8405 9.71786L4 6.83336ZM12 5.33336C10.4103 7.2462 9.17958 9.09686 8.30775 10.8854C7.43592 12.6737 7 14.1564 7 15.3334C7 16.7167 7.4875 17.8959 8.4625 18.8709C9.4375 19.8459 10.6167 20.3334 12 20.3334C13.3833 20.3334 14.5625 19.8459 15.5375 18.8709C16.5125 17.8959 17 16.7167 17 15.3334C17 14.1564 16.5641 12.6718 15.6923 10.8796C14.8204 9.08728 13.5897 7.23853 12 5.33336ZM20 6.83336L16.1595 9.71211C16.7698 10.8096 17.2292 11.8304 17.5375 12.7746C17.8458 13.7189 18 14.5719 18 15.3334C18 15.9397 17.8997 16.5079 17.699 17.0381C17.4983 17.5683 17.2275 18.0449 16.8865 18.4679C17.8352 17.782 18.5913 16.9061 19.1548 15.8401C19.7183 14.7741 20 13.6052 20 12.3334V6.83336Z" fill="black" style="fill:black;fill-opacity:1;"/>
<path d="M4 6.83334V12.3333C4 13.6052 4.28175 14.7741 4.84525 15.8401C5.40875 16.9061 6.16483 17.782 7.1135 18.4678C6.7725 18.0448 6.50167 17.5683 6.301 17.0381C6.10033 16.5079 6 15.9397 6 15.3333C6 14.5757 6.15417 13.7247 6.4625 12.7803C6.77083 11.8362 7.23017 10.8153 7.8405 9.71784L4 6.83334Z" fill="url(#paint0_linear_1099_4690)" style=""/>
<path d="M20 6.83334L16.1595 9.71209C16.7698 10.8096 17.2292 11.8304 17.5375 12.7746C17.8458 13.7189 18 14.5718 18 15.3333C18 15.9397 17.8997 16.5079 17.699 17.0381C17.4983 17.5683 17.2275 18.0448 16.8865 18.4678C17.8352 17.782 18.5912 16.9061 19.1547 15.8401C19.7182 14.7741 20 13.6052 20 12.3333V6.83334Z" fill="url(#paint1_linear_1099_4690)" style=""/>
<path d="M12 5.33334C10.4103 7.24618 9.17958 9.09684 8.30775 10.8853C7.43592 12.6737 7 14.1563 7 15.3333C7 16.7167 7.4875 17.8958 8.4625 18.8708C9.4375 19.8458 10.6167 20.3333 12 20.3333C13.3833 20.3333 14.5625 19.8458 15.5375 18.8708C16.5125 17.8958 17 16.7167 17 15.3333C17 14.1563 16.5641 12.6718 15.6922 10.8796C14.8204 9.08726 13.5897 7.23851 12 5.33334Z" fill="url(#paint2_linear_1099_4690)" style=""/>
<defs>
<linearGradient id="paint0_linear_1099_4690" x1="12" y1="5.83331" x2="12" y2="21.3333" gradientUnits="userSpaceOnUse">
<stop stop-color="#FFBFA0" style="stop-color:#FFBFA0;stop-color:color(display-p3 1.0000 0.7506 0.6259);stop-opacity:1;"/>
<stop offset="0.581731" stop-color="#99C7A8" style="stop-color:#99C7A8;stop-color:color(display-p3 0.5989 0.7802 0.6593);stop-opacity:1;"/>
<stop offset="0.927885" stop-color="#FFBFA0" style="stop-color:#FFBFA0;stop-color:color(display-p3 1.0000 0.7490 0.6275);stop-opacity:1;"/>
</linearGradient>
<linearGradient id="paint1_linear_1099_4690" x1="12" y1="5.83331" x2="12" y2="21.3333" gradientUnits="userSpaceOnUse">
<stop stop-color="#FFBFA0" style="stop-color:#FFBFA0;stop-color:color(display-p3 1.0000 0.7506 0.6259);stop-opacity:1;"/>
<stop offset="0.581731" stop-color="#99C7A8" style="stop-color:#99C7A8;stop-color:color(display-p3 0.5989 0.7802 0.6593);stop-opacity:1;"/>
<stop offset="0.927885" stop-color="#FFBFA0" style="stop-color:#FFBFA0;stop-color:color(display-p3 1.0000 0.7490 0.6275);stop-opacity:1;"/>
</linearGradient>
<linearGradient id="paint2_linear_1099_4690" x1="9.625" y1="6.20831" x2="17.875" y2="21.2083" gradientUnits="userSpaceOnUse">
<stop stop-color="white" style="stop-color:white;stop-opacity:1;"/>
<stop offset="0.182692" stop-color="#FFEFCD" style="stop-color:#FFEFCD;stop-color:color(display-p3 1.0000 0.9382 0.8050);stop-opacity:1;"/>
<stop offset="0.394231" stop-color="#FFCE67" style="stop-color:#FFCE67;stop-color:color(display-p3 1.0000 0.8089 0.4029);stop-opacity:1;"/>
<stop offset="0.6875" stop-color="#FFEFCD" style="stop-color:#FFEFCD;stop-color:color(display-p3 1.0000 0.9373 0.8039);stop-opacity:1;"/>
</linearGradient>
</defs>
</svg>
