<svg width="24" height="24" viewBox="0 0 24 24" fill="none" xmlns="http://www.w3.org/2000/svg">
<mask id="mask0_28_4549" style="mask-type:alpha" maskUnits="userSpaceOnUse" x="0" y="0" width="24" height="24">
<rect width="24" height="24" fill="#D9D9D9" style="fill:#D9D9D9;fill:color(display-p3 0.8510 0.8510 0.8510);fill-opacity:1;"/>
</mask>
<g mask="url(#mask0_28_4549)">
<path d="M14.3001 14.05L12.0501 16.3C11.8834 16.4667 11.7001 16.55 11.5001 16.55C11.3001 16.55 11.1167 16.4667 10.9501 16.3L3.00005 8.35C2.83338 8.18333 2.74172 8.00833 2.72505 7.825C2.70838 7.64166 2.78338 7.46667 2.95005 7.3L5.27505 4.975C5.44172 4.80833 5.61672 4.725 5.80005 4.725C5.98338 4.725 6.15838 4.80833 6.32505 4.975L14.3251 12.975C14.4917 13.1417 14.5707 13.3207 14.5621 13.512C14.5541 13.704 14.4667 13.8833 14.3001 14.05ZM11.5001 15.45L13.4501 13.5L5.80005 5.85L3.85005 7.8L11.5001 15.45ZM18.6001 21.3L14.2751 16.975L14.9751 16.275L19.3001 20.6L18.6001 21.3ZM18.5001 8.275C17.7334 8.275 17.0794 8.004 16.5381 7.462C15.9961 6.92067 15.7251 6.26667 15.7251 5.5C15.7251 4.73333 15.9961 4.079 16.5381 3.537C17.0794 2.99567 17.7334 2.725 18.5001 2.725C19.2667 2.725 19.9211 2.99567 20.4631 3.537C21.0044 4.079 21.2751 4.73333 21.2751 5.5C21.2751 6.26667 21.0044 6.92067 20.4631 7.462C19.9211 8.004 19.2667 8.275 18.5001 8.275ZM18.5001 7.275C19.0001 7.275 19.4211 7.1 19.7631 6.75C20.1044 6.4 20.2751 5.98333 20.2751 5.5C20.2751 5 20.1001 4.579 19.7501 4.237C19.4001 3.89567 18.9834 3.725 18.5001 3.725C18.0001 3.725 17.5794 3.9 17.2381 4.25C16.8961 4.6 16.7251 5.01667 16.7251 5.5C16.7251 6 16.9001 6.42067 17.2501 6.762C17.6001 7.104 18.0167 7.275 18.5001 7.275Z" fill="black" style="fill:black;fill-opacity:1;"/>
</g>
</svg>
