<svg width="28" height="28" viewBox="0 0 28 28" fill="none" xmlns="http://www.w3.org/2000/svg">
<mask id="mask0_28_4517" style="mask-type:alpha" maskUnits="userSpaceOnUse" x="0" y="0" width="28" height="28">
<rect width="28" height="28" fill="#D9D9D9" style="fill:#D9D9D9;fill:color(display-p3 0.8510 0.8510 0.8510);fill-opacity:1;"/>
</mask>
<g mask="url(#mask0_28_4517)">
<path d="M16.6833 16.3917L14.0583 19.0167C13.8639 19.2111 13.65 19.3083 13.4167 19.3083C13.1833 19.3083 12.9694 19.2111 12.775 19.0167L3.5 9.74167C3.30555 9.54723 3.19861 9.34306 3.17917 9.12917C3.15972 8.91528 3.24722 8.71111 3.44167 8.51667L6.15417 5.80417C6.34861 5.60972 6.55278 5.5125 6.76667 5.5125C6.98055 5.5125 7.18472 5.60972 7.37917 5.80417L16.7125 15.1375C16.9069 15.3319 16.9991 15.5408 16.989 15.764C16.9797 15.988 16.8778 16.1972 16.6833 16.3917ZM13.4167 18.025L15.6917 15.75L6.76667 6.825L4.49167 9.1L13.4167 18.025ZM21.7 24.85L16.6542 19.8042L17.4708 18.9875L22.5167 24.0333L21.7 24.85ZM21.5833 9.65417C20.6889 9.65417 19.9259 9.338 19.2943 8.70567C18.662 8.07411 18.3458 7.31111 18.3458 6.41667C18.3458 5.52222 18.662 4.75884 19.2943 4.1265C19.9259 3.49495 20.6889 3.17917 21.5833 3.17917C22.4778 3.17917 23.2412 3.49495 23.8735 4.1265C24.5051 4.75884 24.8208 5.52222 24.8208 6.41667C24.8208 7.31111 24.5051 8.07411 23.8735 8.70567C23.2412 9.338 22.4778 9.65417 21.5833 9.65417ZM21.5833 8.4875C22.1667 8.4875 22.6578 8.28334 23.0568 7.875C23.4551 7.46667 23.6542 6.98056 23.6542 6.41667C23.6542 5.83334 23.45 5.34217 23.0417 4.94317C22.6333 4.54495 22.1472 4.34584 21.5833 4.34584C21 4.34584 20.5092 4.55 20.111 4.95834C19.712 5.36667 19.5125 5.85278 19.5125 6.41667C19.5125 7 19.7167 7.49078 20.125 7.889C20.5333 8.288 21.0194 8.4875 21.5833 8.4875Z" fill="black" style="fill:black;fill-opacity:1;"/>
</g>
</svg>
