<svg width="28" height="28" viewBox="0 0 28 28" fill="none" xmlns="http://www.w3.org/2000/svg">
<mask id="mask0_28_4521" style="mask-type:alpha" maskUnits="userSpaceOnUse" x="0" y="0" width="28" height="28">
<rect width="28" height="28" fill="#D9D9D9" style="fill:#D9D9D9;fill:color(display-p3 0.8510 0.8510 0.8510);fill-opacity:1;"/>
</mask>
<g mask="url(#mask0_28_4521)">
<path d="M14.2624 21.8167C14.4374 21.7972 14.5735 21.7342 14.6708 21.6277C14.768 21.5203 14.8166 21.3986 14.8166 21.2625C14.8166 21.107 14.7583 20.9806 14.6416 20.8833C14.5249 20.7861 14.3791 20.7472 14.2041 20.7667C13.4069 20.825 12.5171 20.5773 11.5348 20.0235C10.5532 19.469 9.94575 18.5403 9.71242 17.2375C9.67353 17.0625 9.61053 16.9264 9.52342 16.8292C9.43553 16.732 9.32353 16.6833 9.18742 16.6833C9.03186 16.6833 8.90081 16.7417 8.79425 16.8583C8.68692 16.975 8.6527 17.15 8.69159 17.3833C8.98325 18.9972 9.7272 20.1542 10.9234 20.8542C12.1189 21.5542 13.2319 21.875 14.2624 21.8167ZM13.9999 24.5C11.6666 24.5 9.72214 23.6981 8.16659 22.0943C6.61103 20.4898 5.83325 18.4917 5.83325 16.1C5.83325 14.4278 6.50875 12.5755 7.85975 10.5432C9.21153 8.51162 11.2583 6.28056 13.9999 3.85001C16.7416 6.28056 18.7879 8.51162 20.1389 10.5432C21.4907 12.5755 22.1666 14.4278 22.1666 16.1C22.1666 18.4917 21.3888 20.4898 19.8333 22.0943C18.2777 23.6981 16.3333 24.5 13.9999 24.5Z" fill="#16B8A4" style="fill:#16B8A4;fill:color(display-p3 0.0863 0.7216 0.6431);fill-opacity:1;"/>
</g>
</svg>
