<svg width="14" height="14" viewBox="0 0 14 14" fill="none" xmlns="http://www.w3.org/2000/svg">
<mask id="mask0_28_4551" style="mask-type:alpha" maskUnits="userSpaceOnUse" x="0" y="0" width="14" height="14">
<rect width="14" height="14" fill="#D9D9D9" style="fill:#D9D9D9;fill:color(display-p3 0.8510 0.8510 0.8510);fill-opacity:1;"/>
</mask>
<g mask="url(#mask0_28_4551)">
<path d="M7.13121 10.9083C7.21871 10.8986 7.28677 10.8671 7.33538 10.8138C7.38399 10.7602 7.40829 10.6993 7.40829 10.6313C7.40829 10.5535 7.37913 10.4903 7.32079 10.4417C7.26246 10.3931 7.18954 10.3736 7.10204 10.3833C6.70343 10.4125 6.25854 10.2886 5.76738 10.0118C5.2766 9.73448 4.97288 9.27014 4.85621 8.61875C4.83676 8.53125 4.80526 8.4632 4.76171 8.41459C4.71776 8.36598 4.66176 8.34167 4.59371 8.34167C4.51593 8.34167 4.4504 8.37084 4.39713 8.42917C4.34346 8.4875 4.32635 8.575 4.34579 8.69167C4.49163 9.49861 4.8636 10.0771 5.46171 10.4271C6.05943 10.7771 6.61593 10.9375 7.13121 10.9083ZM6.99996 12.25C5.83329 12.25 4.86107 11.8491 4.08329 11.0472C3.30551 10.2449 2.91663 9.24584 2.91663 8.05C2.91663 7.21389 3.25438 6.28775 3.92988 5.27159C4.60576 4.25581 5.62913 3.14028 6.99996 1.925C8.37079 3.14028 9.39396 4.25581 10.0695 5.27159C10.7453 6.28775 11.0833 7.21389 11.0833 8.05C11.0833 9.24584 10.6944 10.2449 9.91663 11.0472C9.13885 11.8491 8.16663 12.25 6.99996 12.25Z" fill="white" style="fill:white;fill-opacity:1;"/>
</g>
</svg>
