<svg width="24" height="24" viewBox="0 0 24 24" fill="none" xmlns="http://www.w3.org/2000/svg">
<mask id="mask0_28_4548" style="mask-type:alpha" maskUnits="userSpaceOnUse" x="0" y="0" width="24" height="24">
<rect width="24" height="24" fill="#D9D9D9" style="fill:#D9D9D9;fill:color(display-p3 0.8510 0.8510 0.8510);fill-opacity:1;"/>
</mask>
<g mask="url(#mask0_28_4548)">
<path d="M12.225 18.7C12.375 18.6833 12.4917 18.6293 12.575 18.538C12.6583 18.446 12.7 18.3417 12.7 18.225C12.7 18.0917 12.65 17.9833 12.55 17.9C12.45 17.8167 12.325 17.7833 12.175 17.8C11.4917 17.85 10.729 17.6377 9.887 17.163C9.04567 16.6877 8.525 15.8917 8.325 14.775C8.29167 14.625 8.23767 14.5083 8.163 14.425C8.08767 14.3417 7.99167 14.3 7.875 14.3C7.74167 14.3 7.62933 14.35 7.538 14.45C7.446 14.55 7.41667 14.7 7.45 14.9C7.7 16.2833 8.33767 17.275 9.363 17.875C10.3877 18.475 11.3417 18.75 12.225 18.7ZM12 21C10 21 8.33333 20.3127 7 18.938C5.66667 17.5627 5 15.85 5 13.8C5 12.3667 5.579 10.779 6.737 9.037C7.89567 7.29567 9.65 5.38333 12 3.3C14.35 5.38333 16.104 7.29567 17.262 9.037C18.4207 10.779 19 12.3667 19 13.8C19 15.85 18.3333 17.5627 17 18.938C15.6667 20.3127 14 21 12 21ZM12 20C13.7333 20 15.1667 19.4127 16.3 18.238C17.4333 17.0627 18 15.5833 18 13.8C18 12.5833 17.496 11.2083 16.488 9.675C15.4793 8.14167 13.9833 6.46667 12 4.65C10.0167 6.46667 8.521 8.14167 7.513 9.675C6.50433 11.2083 6 12.5833 6 13.8C6 15.5833 6.56667 17.0627 7.7 18.238C8.83333 19.4127 10.2667 20 12 20Z" fill="black" style="fill:black;fill-opacity:1;"/>
</g>
</svg>
