<svg width="14" height="14" viewBox="0 0 14 14" fill="none" xmlns="http://www.w3.org/2000/svg">
<mask id="mask0_28_4550" style="mask-type:alpha" maskUnits="userSpaceOnUse" x="0" y="0" width="14" height="14">
<rect width="14" height="14" fill="#D9D9D9" style="fill:#D9D9D9;fill:color(display-p3 0.8510 0.8510 0.8510);fill-opacity:1;"/>
</mask>
<g mask="url(#mask0_28_4550)">
<path d="M5.46879 1.45833V0.875H8.53129V1.45833H5.46879ZM6.70837 7.94792H7.29171V4.88542H6.70837V7.94792ZM7.00004 12.25C6.35837 12.25 5.75326 12.1285 5.18471 11.8854C4.61576 11.6424 4.11993 11.3095 3.69721 10.8867C3.2741 10.4636 2.94101 9.96781 2.69796 9.39925C2.4549 8.83031 2.33337 8.225 2.33337 7.58333C2.33337 6.94167 2.4549 6.33636 2.69796 5.76742C2.94101 5.19886 3.2741 4.70303 3.69721 4.27992C4.11993 3.85719 4.61576 3.52431 5.18471 3.28125C5.75326 3.03819 6.35837 2.91667 7.00004 2.91667C7.56393 2.91667 8.11071 3.01875 8.64037 3.22292C9.17043 3.42708 9.65421 3.71389 10.0917 4.08333L10.7334 3.44167L11.1417 3.85L10.5 4.49167C10.8695 4.92917 11.1563 5.41294 11.3605 5.943C11.5646 6.47267 11.6667 7.01944 11.6667 7.58333C11.6667 8.225 11.5452 8.83031 11.3021 9.39925C11.0591 9.96781 10.7262 10.4636 10.3035 10.8867C9.88035 11.3095 9.38451 11.6424 8.81596 11.8854C8.24701 12.1285 7.64171 12.25 7.00004 12.25ZM7.00004 11.6667C8.12782 11.6667 9.09032 11.2681 9.88754 10.4708C10.6848 9.67361 11.0834 8.71111 11.0834 7.58333C11.0834 6.45556 10.6848 5.49306 9.88754 4.69583C9.09032 3.89861 8.12782 3.5 7.00004 3.5C5.87226 3.5 4.90976 3.89861 4.11254 4.69583C3.31532 5.49306 2.91671 6.45556 2.91671 7.58333C2.91671 8.71111 3.31532 9.67361 4.11254 10.4708C4.90976 11.2681 5.87226 11.6667 7.00004 11.6667Z" fill="black" style="fill:black;fill-opacity:1;"/>
</g>
</svg>
