<svg width="24" height="24" viewBox="0 0 24 24" fill="none" xmlns="http://www.w3.org/2000/svg">
<mask id="mask0_28_4552" style="mask-type:alpha" maskUnits="userSpaceOnUse" x="0" y="0" width="24" height="24">
<rect width="24" height="24" fill="#D9D9D9" style="fill:#D9D9D9;fill:color(display-p3 0.8510 0.8510 0.8510);fill-opacity:1;"/>
</mask>
<g mask="url(#mask0_28_4552)">
<path d="M9.375 2.5V1.5H14.625V2.5H9.375ZM11.5 13.625H12.5V8.375H11.5V13.625ZM12 21C10.9 21 9.86267 20.7917 8.888 20.375C7.91267 19.9583 7.06267 19.3877 6.338 18.663C5.61267 17.9377 5.04167 17.0877 4.625 16.113C4.20833 15.1377 4 14.1 4 13C4 11.9 4.20833 10.8623 4.625 9.887C5.04167 8.91233 5.61267 8.06233 6.338 7.337C7.06267 6.61233 7.91267 6.04167 8.888 5.625C9.86267 5.20833 10.9 5 12 5C12.9667 5 13.904 5.175 14.812 5.525C15.7207 5.875 16.55 6.36667 17.3 7L18.4 5.9L19.1 6.6L18 7.7C18.6333 8.45 19.125 9.27933 19.475 10.188C19.825 11.096 20 12.0333 20 13C20 14.1 19.7917 15.1377 19.375 16.113C18.9583 17.0877 18.3877 17.9377 17.663 18.663C16.9377 19.3877 16.0877 19.9583 15.113 20.375C14.1377 20.7917 13.1 21 12 21ZM12 20C13.9333 20 15.5833 19.3167 16.95 17.95C18.3167 16.5833 19 14.9333 19 13C19 11.0667 18.3167 9.41667 16.95 8.05C15.5833 6.68333 13.9333 6 12 6C10.0667 6 8.41667 6.68333 7.05 8.05C5.68333 9.41667 5 11.0667 5 13C5 14.9333 5.68333 16.5833 7.05 17.95C8.41667 19.3167 10.0667 20 12 20Z" fill="black" style="fill:black;fill-opacity:1;"/>
</g>
</svg>
